<svg xmlns="http://www.w3.org/2000/svg" viewBox="0 0 200 240" width="200" height="240">
  <defs>
    <linearGradient id="g" x1="0" y1="0" x2="0" y2="1">
      <stop offset="0" stop-color="#16543C"/>
      <stop offset="1" stop-color="#0A2C20"/>
    </linearGradient>
    <clipPath id="c">
      <path d="M40,24 H160 a16,16 0 0 1 16,16 V118 C176,168 150,196 100,214 C50,196 24,168 24,118 V40 a16,16 0 0 1 16,-16 Z"/>
    </clipPath>
  </defs>
  <path d="M40,24 H160 a16,16 0 0 1 16,16 V118 C176,168 150,196 100,214 C50,196 24,168 24,118 V40 a16,16 0 0 1 16,-16 Z" fill="url(#g)"/>
  <g clip-path="url(#c)">
    <path d="M0,150 q30,-14 60,0 t60,0 t60,0 t60,0" fill="none" stroke="#F7F2E6" stroke-width="7" stroke-linecap="round" opacity="0.55"/>
    <path d="M0,128 q30,-12 60,0 t60,0 t60,0 t60,0" fill="none" stroke="#5E7C8A" stroke-width="8" stroke-linecap="round" opacity="0.85"/>
    <path d="M0,172 q30,-14 60,0 t60,0 t60,0 t60,0" fill="none" stroke="#5E7C8A" stroke-width="9" stroke-linecap="round" opacity="0.6"/>
  </g>
  <path d="M46,32 H154 a10,10 0 0 1 10,10 V116 C164,160 142,185 100,201 C58,185 36,160 36,116 V42 a10,10 0 0 1 10,-10 Z" fill="none" stroke="#F7F2E6" stroke-width="2" opacity="0.4"/>
</svg>
